<mxfile host="Electron" modified="2024-02-05T19:09:42.770Z" agent="Mozilla/5.0 (Windows NT 10.0; Win64; x64) AppleWebKit/537.36 (KHTML, like Gecko) draw.io/22.1.16 Chrome/120.0.6099.109 Electron/28.1.0 Safari/537.36" etag="KjCq7_TBhY-Yno8-pL_W" version="22.1.16" type="device">
  <diagram name="Страница — 1" id="x3ASPkyUIjZy-x1FBZUD">
    <mxGraphModel dx="408" dy="-5105" grid="1" gridSize="10" guides="1" tooltips="1" connect="1" arrows="1" fold="1" page="1" pageScale="1" pageWidth="827" pageHeight="1169" math="0" shadow="0">
      <root>
        <mxCell id="0" />
        <mxCell id="1" parent="0" />
        <mxCell id="8_T74Xt0qUnq9rnjdWRC-165" value="" style="group" vertex="1" connectable="0" parent="1">
          <mxGeometry x="920.0000000000002" y="6400" width="610.0699999999999" height="550" as="geometry" />
        </mxCell>
        <mxCell id="8_T74Xt0qUnq9rnjdWRC-166" value="Шанс уворота" style="rounded=0;whiteSpace=wrap;html=1;" vertex="1" parent="8_T74Xt0qUnq9rnjdWRC-165">
          <mxGeometry x="330.06999999999994" y="80" width="120" height="60" as="geometry" />
        </mxCell>
        <mxCell id="8_T74Xt0qUnq9rnjdWRC-167" style="edgeStyle=orthogonalEdgeStyle;rounded=0;orthogonalLoop=1;jettySize=auto;html=1;exitX=0;exitY=0.5;exitDx=0;exitDy=0;entryX=0;entryY=0.5;entryDx=0;entryDy=0;" edge="1" parent="8_T74Xt0qUnq9rnjdWRC-165" source="8_T74Xt0qUnq9rnjdWRC-168" target="8_T74Xt0qUnq9rnjdWRC-166">
          <mxGeometry relative="1" as="geometry" />
        </mxCell>
        <mxCell id="8_T74Xt0qUnq9rnjdWRC-168" value="Персонаж" style="rounded=0;whiteSpace=wrap;html=1;" vertex="1" parent="8_T74Xt0qUnq9rnjdWRC-165">
          <mxGeometry x="490.06999999999994" width="120" height="60" as="geometry" />
        </mxCell>
        <mxCell id="8_T74Xt0qUnq9rnjdWRC-169" value="ХП Актуальное" style="rounded=0;whiteSpace=wrap;html=1;" vertex="1" parent="8_T74Xt0qUnq9rnjdWRC-165">
          <mxGeometry x="490.06999999999994" y="80" width="120" height="60" as="geometry" />
        </mxCell>
        <mxCell id="8_T74Xt0qUnq9rnjdWRC-170" style="edgeStyle=orthogonalEdgeStyle;rounded=0;orthogonalLoop=1;jettySize=auto;html=1;exitX=0;exitY=0.5;exitDx=0;exitDy=0;entryX=0;entryY=0.5;entryDx=0;entryDy=0;" edge="1" parent="8_T74Xt0qUnq9rnjdWRC-165" source="8_T74Xt0qUnq9rnjdWRC-168" target="8_T74Xt0qUnq9rnjdWRC-169">
          <mxGeometry relative="1" as="geometry" />
        </mxCell>
        <mxCell id="8_T74Xt0qUnq9rnjdWRC-171" value="Броня" style="rounded=0;whiteSpace=wrap;html=1;" vertex="1" parent="8_T74Xt0qUnq9rnjdWRC-165">
          <mxGeometry x="490.06999999999994" y="162.5" width="120" height="60" as="geometry" />
        </mxCell>
        <mxCell id="8_T74Xt0qUnq9rnjdWRC-172" style="edgeStyle=orthogonalEdgeStyle;rounded=0;orthogonalLoop=1;jettySize=auto;html=1;exitX=0;exitY=0.5;exitDx=0;exitDy=0;entryX=0;entryY=0.5;entryDx=0;entryDy=0;" edge="1" parent="8_T74Xt0qUnq9rnjdWRC-165" source="8_T74Xt0qUnq9rnjdWRC-168" target="8_T74Xt0qUnq9rnjdWRC-171">
          <mxGeometry relative="1" as="geometry" />
        </mxCell>
        <mxCell id="8_T74Xt0qUnq9rnjdWRC-173" value="Скорость актуальная" style="rounded=0;whiteSpace=wrap;html=1;" vertex="1" parent="8_T74Xt0qUnq9rnjdWRC-165">
          <mxGeometry x="490.06999999999994" y="247.5" width="120" height="60" as="geometry" />
        </mxCell>
        <mxCell id="8_T74Xt0qUnq9rnjdWRC-174" style="edgeStyle=orthogonalEdgeStyle;rounded=0;orthogonalLoop=1;jettySize=auto;html=1;exitX=0;exitY=0.5;exitDx=0;exitDy=0;entryX=0;entryY=0.5;entryDx=0;entryDy=0;" edge="1" parent="8_T74Xt0qUnq9rnjdWRC-165" source="8_T74Xt0qUnq9rnjdWRC-168" target="8_T74Xt0qUnq9rnjdWRC-173">
          <mxGeometry relative="1" as="geometry" />
        </mxCell>
        <mxCell id="8_T74Xt0qUnq9rnjdWRC-175" value="Высота прыжка" style="rounded=0;whiteSpace=wrap;html=1;" vertex="1" parent="8_T74Xt0qUnq9rnjdWRC-165">
          <mxGeometry x="490.06999999999994" y="327.5" width="120" height="60" as="geometry" />
        </mxCell>
        <mxCell id="8_T74Xt0qUnq9rnjdWRC-176" style="edgeStyle=orthogonalEdgeStyle;rounded=0;orthogonalLoop=1;jettySize=auto;html=1;exitX=0;exitY=0.5;exitDx=0;exitDy=0;entryX=0;entryY=0.5;entryDx=0;entryDy=0;" edge="1" parent="8_T74Xt0qUnq9rnjdWRC-165" source="8_T74Xt0qUnq9rnjdWRC-168" target="8_T74Xt0qUnq9rnjdWRC-175">
          <mxGeometry relative="1" as="geometry" />
        </mxCell>
        <mxCell id="8_T74Xt0qUnq9rnjdWRC-177" value="Актуальная мана" style="rounded=0;whiteSpace=wrap;html=1;" vertex="1" parent="8_T74Xt0qUnq9rnjdWRC-165">
          <mxGeometry x="330.06999999999994" y="320" width="120" height="60" as="geometry" />
        </mxCell>
        <mxCell id="8_T74Xt0qUnq9rnjdWRC-178" style="edgeStyle=orthogonalEdgeStyle;rounded=0;orthogonalLoop=1;jettySize=auto;html=1;exitX=0;exitY=0.5;exitDx=0;exitDy=0;entryX=0;entryY=0.5;entryDx=0;entryDy=0;" edge="1" parent="8_T74Xt0qUnq9rnjdWRC-165" source="8_T74Xt0qUnq9rnjdWRC-168" target="8_T74Xt0qUnq9rnjdWRC-177">
          <mxGeometry relative="1" as="geometry" />
        </mxCell>
        <mxCell id="8_T74Xt0qUnq9rnjdWRC-179" value="Массив скиллов" style="rounded=0;whiteSpace=wrap;html=1;" vertex="1" parent="8_T74Xt0qUnq9rnjdWRC-165">
          <mxGeometry x="330.06999999999994" y="240" width="120" height="60" as="geometry" />
        </mxCell>
        <mxCell id="8_T74Xt0qUnq9rnjdWRC-180" style="edgeStyle=orthogonalEdgeStyle;rounded=0;orthogonalLoop=1;jettySize=auto;html=1;exitX=0;exitY=0.5;exitDx=0;exitDy=0;entryX=0;entryY=0.5;entryDx=0;entryDy=0;" edge="1" parent="8_T74Xt0qUnq9rnjdWRC-165" source="8_T74Xt0qUnq9rnjdWRC-168" target="8_T74Xt0qUnq9rnjdWRC-179">
          <mxGeometry relative="1" as="geometry" />
        </mxCell>
        <mxCell id="8_T74Xt0qUnq9rnjdWRC-181" value="Инвентарь (Множители урона)&lt;br&gt;inventoryMultiple" style="rounded=0;whiteSpace=wrap;html=1;" vertex="1" parent="8_T74Xt0qUnq9rnjdWRC-165">
          <mxGeometry y="80" width="120" height="60" as="geometry" />
        </mxCell>
        <mxCell id="8_T74Xt0qUnq9rnjdWRC-182" style="edgeStyle=orthogonalEdgeStyle;rounded=0;orthogonalLoop=1;jettySize=auto;html=1;exitX=0;exitY=0.5;exitDx=0;exitDy=0;entryX=0;entryY=0.5;entryDx=0;entryDy=0;" edge="1" parent="8_T74Xt0qUnq9rnjdWRC-165" source="8_T74Xt0qUnq9rnjdWRC-168" target="8_T74Xt0qUnq9rnjdWRC-181">
          <mxGeometry relative="1" as="geometry" />
        </mxCell>
        <mxCell id="8_T74Xt0qUnq9rnjdWRC-183" value="Наложенные доты" style="rounded=0;whiteSpace=wrap;html=1;" vertex="1" parent="8_T74Xt0qUnq9rnjdWRC-165">
          <mxGeometry x="330.06999999999994" y="162.5" width="120" height="60" as="geometry" />
        </mxCell>
        <mxCell id="8_T74Xt0qUnq9rnjdWRC-184" style="edgeStyle=orthogonalEdgeStyle;rounded=0;orthogonalLoop=1;jettySize=auto;html=1;exitX=0;exitY=0.5;exitDx=0;exitDy=0;entryX=0;entryY=0.5;entryDx=0;entryDy=0;" edge="1" parent="8_T74Xt0qUnq9rnjdWRC-165" source="8_T74Xt0qUnq9rnjdWRC-168" target="8_T74Xt0qUnq9rnjdWRC-183">
          <mxGeometry relative="1" as="geometry" />
        </mxCell>
        <mxCell id="8_T74Xt0qUnq9rnjdWRC-185" value="bul стоит" style="rounded=0;whiteSpace=wrap;html=1;" vertex="1" parent="8_T74Xt0qUnq9rnjdWRC-165">
          <mxGeometry x="170.06999999999994" y="80" width="120" height="60" as="geometry" />
        </mxCell>
        <mxCell id="8_T74Xt0qUnq9rnjdWRC-186" style="edgeStyle=orthogonalEdgeStyle;rounded=0;orthogonalLoop=1;jettySize=auto;html=1;exitX=0;exitY=0.5;exitDx=0;exitDy=0;entryX=0;entryY=0.5;entryDx=0;entryDy=0;" edge="1" parent="8_T74Xt0qUnq9rnjdWRC-165" source="8_T74Xt0qUnq9rnjdWRC-168" target="8_T74Xt0qUnq9rnjdWRC-185">
          <mxGeometry relative="1" as="geometry" />
        </mxCell>
        <mxCell id="8_T74Xt0qUnq9rnjdWRC-187" value="bul Движется" style="rounded=0;whiteSpace=wrap;html=1;" vertex="1" parent="8_T74Xt0qUnq9rnjdWRC-165">
          <mxGeometry x="170.06999999999994" y="160" width="120" height="60" as="geometry" />
        </mxCell>
        <mxCell id="8_T74Xt0qUnq9rnjdWRC-188" value="bul Бьет" style="rounded=0;whiteSpace=wrap;html=1;" vertex="1" parent="8_T74Xt0qUnq9rnjdWRC-165">
          <mxGeometry x="170.06999999999994" y="249" width="120" height="60" as="geometry" />
        </mxCell>
        <mxCell id="8_T74Xt0qUnq9rnjdWRC-189" value="bul Прыгает" style="rounded=0;whiteSpace=wrap;html=1;" vertex="1" parent="8_T74Xt0qUnq9rnjdWRC-165">
          <mxGeometry x="170.06999999999994" y="330" width="120" height="60" as="geometry" />
        </mxCell>
        <mxCell id="8_T74Xt0qUnq9rnjdWRC-190" value="bul Кастует" style="rounded=0;whiteSpace=wrap;html=1;" vertex="1" parent="8_T74Xt0qUnq9rnjdWRC-165">
          <mxGeometry x="170.06999999999994" y="410" width="120" height="60" as="geometry" />
        </mxCell>
        <mxCell id="8_T74Xt0qUnq9rnjdWRC-191" value="bul получает урон" style="rounded=0;whiteSpace=wrap;html=1;" vertex="1" parent="8_T74Xt0qUnq9rnjdWRC-165">
          <mxGeometry x="170.06999999999994" y="490" width="120" height="60" as="geometry" />
        </mxCell>
        <mxCell id="8_T74Xt0qUnq9rnjdWRC-192" value="Инвентарь (ДОТы)&lt;br&gt;inventoryDot" style="rounded=0;whiteSpace=wrap;html=1;" vertex="1" parent="8_T74Xt0qUnq9rnjdWRC-165">
          <mxGeometry y="150" width="120" height="60" as="geometry" />
        </mxCell>
        <mxCell id="8_T74Xt0qUnq9rnjdWRC-193" value="Инвентарь (Баффы)&lt;br&gt;inventoryBaff" style="rounded=0;whiteSpace=wrap;html=1;" vertex="1" parent="8_T74Xt0qUnq9rnjdWRC-165">
          <mxGeometry y="220" width="120" height="60" as="geometry" />
        </mxCell>
        <mxCell id="8_T74Xt0qUnq9rnjdWRC-194" style="edgeStyle=orthogonalEdgeStyle;rounded=0;orthogonalLoop=1;jettySize=auto;html=1;exitX=0;exitY=0.5;exitDx=0;exitDy=0;entryX=0;entryY=0.5;entryDx=0;entryDy=0;" edge="1" parent="8_T74Xt0qUnq9rnjdWRC-165" source="8_T74Xt0qUnq9rnjdWRC-168" target="8_T74Xt0qUnq9rnjdWRC-187">
          <mxGeometry relative="1" as="geometry" />
        </mxCell>
        <mxCell id="8_T74Xt0qUnq9rnjdWRC-195" style="edgeStyle=orthogonalEdgeStyle;rounded=0;orthogonalLoop=1;jettySize=auto;html=1;exitX=0;exitY=0.5;exitDx=0;exitDy=0;entryX=0;entryY=0.5;entryDx=0;entryDy=0;" edge="1" parent="8_T74Xt0qUnq9rnjdWRC-165" source="8_T74Xt0qUnq9rnjdWRC-168" target="8_T74Xt0qUnq9rnjdWRC-188">
          <mxGeometry relative="1" as="geometry" />
        </mxCell>
        <mxCell id="8_T74Xt0qUnq9rnjdWRC-196" style="edgeStyle=orthogonalEdgeStyle;rounded=0;orthogonalLoop=1;jettySize=auto;html=1;exitX=0;exitY=0.5;exitDx=0;exitDy=0;entryX=0;entryY=0.5;entryDx=0;entryDy=0;" edge="1" parent="8_T74Xt0qUnq9rnjdWRC-165" source="8_T74Xt0qUnq9rnjdWRC-168" target="8_T74Xt0qUnq9rnjdWRC-189">
          <mxGeometry relative="1" as="geometry" />
        </mxCell>
        <mxCell id="8_T74Xt0qUnq9rnjdWRC-197" style="edgeStyle=orthogonalEdgeStyle;rounded=0;orthogonalLoop=1;jettySize=auto;html=1;exitX=0;exitY=0.5;exitDx=0;exitDy=0;entryX=0;entryY=0.5;entryDx=0;entryDy=0;" edge="1" parent="8_T74Xt0qUnq9rnjdWRC-165" source="8_T74Xt0qUnq9rnjdWRC-168" target="8_T74Xt0qUnq9rnjdWRC-190">
          <mxGeometry relative="1" as="geometry" />
        </mxCell>
        <mxCell id="8_T74Xt0qUnq9rnjdWRC-198" style="edgeStyle=orthogonalEdgeStyle;rounded=0;orthogonalLoop=1;jettySize=auto;html=1;exitX=0;exitY=0.5;exitDx=0;exitDy=0;entryX=0;entryY=0.5;entryDx=0;entryDy=0;" edge="1" parent="8_T74Xt0qUnq9rnjdWRC-165" source="8_T74Xt0qUnq9rnjdWRC-168" target="8_T74Xt0qUnq9rnjdWRC-191">
          <mxGeometry relative="1" as="geometry" />
        </mxCell>
        <mxCell id="8_T74Xt0qUnq9rnjdWRC-199" style="edgeStyle=orthogonalEdgeStyle;rounded=0;orthogonalLoop=1;jettySize=auto;html=1;exitX=0;exitY=0.5;exitDx=0;exitDy=0;entryX=0;entryY=0.5;entryDx=0;entryDy=0;" edge="1" parent="8_T74Xt0qUnq9rnjdWRC-165" source="8_T74Xt0qUnq9rnjdWRC-168" target="8_T74Xt0qUnq9rnjdWRC-192">
          <mxGeometry relative="1" as="geometry" />
        </mxCell>
        <mxCell id="8_T74Xt0qUnq9rnjdWRC-200" style="edgeStyle=orthogonalEdgeStyle;rounded=0;orthogonalLoop=1;jettySize=auto;html=1;exitX=0;exitY=0.5;exitDx=0;exitDy=0;entryX=0;entryY=0.5;entryDx=0;entryDy=0;" edge="1" parent="8_T74Xt0qUnq9rnjdWRC-165" source="8_T74Xt0qUnq9rnjdWRC-168" target="8_T74Xt0qUnq9rnjdWRC-193">
          <mxGeometry relative="1" as="geometry" />
        </mxCell>
      </root>
    </mxGraphModel>
  </diagram>
</mxfile>
